<?xml version="1.0" encoding="UTF-8" standalone="no"?>
<svg
   id="Layer_1"
   data-name="Layer 1"
   width="286"
   height="94"
   viewBox="0 0 286 94"
   version="1.1"
   sodipodi:docname="sticks.svg"
   inkscape:version="1.3.1 (91b66b0783, 2023-11-16)"
   xmlns:inkscape="http://www.inkscape.org/namespaces/inkscape"
   xmlns:sodipodi="http://sodipodi.sourceforge.net/DTD/sodipodi-0.dtd"
   xmlns="http://www.w3.org/2000/svg"
   xmlns:svg="http://www.w3.org/2000/svg">
  <sodipodi:namedview
     id="namedview11"
     pagecolor="#ffffff"
     bordercolor="#000000"
     borderopacity="0.25"
     inkscape:showpageshadow="2"
     inkscape:pageopacity="0.0"
     inkscape:pagecheckerboard="0"
     inkscape:deskcolor="#d1d1d1"
     inkscape:zoom="4"
     inkscape:cx="153.125"
     inkscape:cy="7.625"
     inkscape:window-width="1920"
     inkscape:window-height="1009"
     inkscape:window-x="-3"
     inkscape:window-y="-4"
     inkscape:window-maximized="1"
     inkscape:current-layer="Layer_1" />
  <defs
     id="defs1">
    <style
       id="style1">
      .cls-1 {
        fill: #0f0f0f;
      }

      .cls-2 {
        fill: #121212;
      }

      .cls-3 {
        fill: #141414;
      }

      .cls-4 {
        fill: #f0f0f0;
      }

      .cls-5 {
        fill: #ededed;
      }

      .cls-6 {
        fill: #ebebeb;
      }
    </style>
  </defs>
  <g
     id="g3">
    <g
       id="g2">
      <path
         class="cls-1"
         d="M47,92.5A45.5,45.5,0,1,1,92.5,47,45.54,45.54,0,0,1,47,92.5Z"
         id="path1" />
      <path
         class="cls-2"
         d="M47,3A44,44,0,1,1,3,47,44,44,0,0,1,47,3m0-3A47,47,0,1,0,94,47,46.95,46.95,0,0,0,47,0Z"
         id="path2" />
    </g>
    <circle
       class="cls-3"
       cx="47"
       cy="47"
       r="27.3"
       id="circle2" />
  </g>
  <g
     id="g7">
    <g
       id="g4">
      <path
         class="cls-4"
         d="M239,92.5A45.5,45.5,0,1,1,284.5,47,45.54,45.54,0,0,1,239,92.5Z"
         id="path3" />
      <path
         class="cls-5"
         d="M239,3a44,44,0,1,1-44,44A44,44,0,0,1,239,3m0-3a47,47,0,1,0,47,47A46.95,46.95,0,0,0,239,0Z"
         id="path4" />
    </g>
    <circle
       class="cls-6"
       cx="239"
       cy="47"
       r="27.3"
       id="circle4" />
    <g
       id="g6">
      <path
         d="M218.7,33.5h12.6c5.8,0,8.7,2.7,8.7,7.1,0,5.1-3.5,6.4-4.4,6.7v.1c1.6.2,3.9,1.4,3.9,5.6,0,3.1.4,5.9,1.4,7h-5a7.36,7.36,0,0,1-.7-3.9c0-4.8-1-7-5.3-7h-6.8V60h-4.6V33.5Zm4.6,12.1h7.6q4.5,0,4.5-4.2c0-3.4-2.2-4-4.6-4h-7.5Z"
         id="path5" />
      <path
         d="M250.3,44.8c2.8.1,5.7-.9,5.7-4.1a3.71,3.71,0,0,0-4-3.7c-2.9,0-4.4,2.6-4.3,5.3h-4.2c.2-5,3.4-8.8,8.6-8.8,4,0,8.2,2.3,8.2,6.9,0,2.6-1.1,4.7-3.7,5.5V46c3,.6,4.7,3.1,4.7,6.5,0,4.9-4.3,7.9-9.2,7.9-6,0-9-3.6-9.1-9h4.2c-.1,3.1,1.6,5.5,4.9,5.5,2.8,0,5-1.7,5-4.6,0-4-3.4-4.5-6.8-4.4V44.8Z"
         id="path6" />
    </g>
  </g>
  <g
     id="g11">
    <g
       id="g8">
      <path
         class="cls-4"
         d="M143,92.5A45.5,45.5,0,1,1,188.5,47,45.54,45.54,0,0,1,143,92.5Z"
         id="path7" />
      <path
         class="cls-5"
         d="M143,3A44,44,0,1,1,99,47,44,44,0,0,1,143,3m0-3a47,47,0,1,0,47,47A46.95,46.95,0,0,0,143,0Z"
         id="path8" />
    </g>
    <circle
       class="cls-6"
       cx="143"
       cy="47"
       r="27.3"
       id="circle8" />
    <g
       id="g10">
      <path
         d="M125.1,33.5h4.6V55.9h13.4v4h-18Z"
         id="path9" />
      <path
         d="M151.9,44.8c2.8.1,5.7-.9,5.7-4.1a3.71,3.71,0,0,0-4-3.7c-2.9,0-4.4,2.6-4.3,5.3h-4.2c.2-5,3.4-8.8,8.6-8.8,4,0,8.2,2.3,8.2,6.9,0,2.6-1.1,4.7-3.7,5.5V46c3,.6,4.7,3.1,4.7,6.5,0,4.9-4.3,7.9-9.2,7.9-6,0-9-3.6-9.1-9h4.2c-.1,3.1,1.6,5.5,4.9,5.5,2.8,0,5-1.7,5-4.6,0-4-3.4-4.5-6.8-4.4V44.8Z"
         id="path10" />
    </g>
  </g>
  <path
     style="fill:#f0f0f0;fill-opacity:1;stroke-width:0.203849"
     d="M 43.623664,93.760122 C 27.176221,92.567435 12.23943,82.530455 5.0446986,67.836466 2.9488569,63.556074 1.67305,59.710625 0.79894137,55.039202 0.25114298,52.11165 0.03047704,44.948661 0.39222853,41.836985 1.0962557,35.78116 3.1121279,29.532358 6.0961086,24.156094 13.134346,11.47524 25.831671,2.7682297 40.45945,0.59191918 43.520869,0.1364434 49.345773,0.04424039 52.290063,0.40465117 62.965246,1.7114006 72.609908,6.3541774 80.020095,13.753421 c 7.358132,7.347261 12.00588,16.68751 13.443464,27.016358 0.476721,3.425169 0.477836,9.042935 0.0025,12.434783 -3.112493,22.208322 -20.922838,38.885351 -43.319199,40.562687 -2.991937,0.224074 -3.340095,0.223695 -6.523164,-0.0071 z m 8.524086,-3.06106 c 10.765857,-1.214106 21.538788,-7.015521 28.40806,-15.298246 1.637995,-1.975037 4.080792,-5.441938 4.772078,-6.772696 2.020454,-3.889476 2.942326,-6.127492 3.95271,-9.595951 1.212389,-4.161911 1.645553,-7.379941 1.645119,-12.221821 C 90.924029,27.93533 78.818306,11.219381 60.848895,5.2793553 58.191376,4.4008773 57.959492,4.3366162 56.133428,3.9725734 52.320171,3.2123659 50.708652,3.079978 46.171775,3.1542135 40.565451,3.2459479 37.03115,3.8490704 32.286569,5.5237 18.039091,10.552434 7.1207312,23.012909 3.9651605,37.845236 c -0.88414,4.155778 -1.1490053,10.69575 -0.5972773,14.747779 0.7180212,5.273328 2.3102006,10.317736 4.6708745,14.798457 4.4475953,8.441844 11.0959043,14.908777 19.5827673,19.048524 4.352158,2.122909 8.638403,3.453202 13.374757,4.151036 2.120093,0.312366 8.76845,0.376772 11.151468,0.10803 z"
     id="path13" />
  <path
     style="fill:#ebebeb;fill-opacity:1;stroke-width:0.203849"
     d="M 40.398203,90.379604 C 34.792597,89.51492 28.778888,87.251455 23.637564,84.071162 14.152491,78.203934 7.0497025,68.309251 4.3867369,57.253404 3.5399472,53.737783 3.2640734,51.328544 3.262784,47.437797 3.2608791,41.689507 3.8163415,37.907714 5.3350136,33.329294 9.3360197,21.267252 18.851047,11.069562 30.474201,6.3864754 33.7441,5.0690006 36.067515,4.3894754 39.240912,3.8224907 41.320931,3.450858 42.495721,3.3837941 47.089095,3.3744711 53.480147,3.3614993 55.362094,3.637638 60.52046,5.3452597 72.039523,9.1585215 81.216916,17.118916 86.411345,27.802796 c 4.905493,10.089595 5.746896,22.044415 2.297155,32.638401 -0.965969,2.966444 -2.765714,6.983947 -4.060954,9.065112 -6.998108,11.244413 -18.066611,18.741144 -30.717943,20.805358 -3.05099,0.497803 -10.50212,0.535216 -13.5314,0.06794 z M 51.777619,73.877808 C 62.294643,72.056465 70.912316,64.016546 73.483044,53.627577 75.067451,47.224581 74.39021,40.736768 71.541942,35.032252 66.455247,24.844612 55.984141,18.869583 44.846757,19.799427 c -3.814908,0.318501 -6.518283,1.05915 -9.897225,2.711563 -5.468958,2.674498 -9.866221,7.111269 -12.514482,12.626925 -1.906187,3.970102 -2.68897,7.368339 -2.705997,11.747331 -0.02396,6.162513 1.764844,11.562896 5.487045,16.56533 4.472818,6.011222 11.839707,10.115961 19.42681,10.824374 1.587221,0.1482 5.121803,-0.04855 7.134711,-0.397142 z"
     id="path14" />
  <path
     style="fill:#ebebeb;fill-opacity:1;stroke-width:0.203849"
     d="M 42.513674,73.872035 C 33.920775,72.32081 26.165193,66.42563 22.430715,58.606557 c -1.72628,-3.614402 -2.51505,-7.207746 -2.528184,-11.517462 -0.01062,-3.485327 0.276786,-5.460211 1.20926,-8.309295 3.088405,-9.436317 10.796133,-16.354399 20.527675,-18.424642 2.764429,-0.588091 7.986298,-0.633595 10.437991,-0.09096 8.021366,1.775387 14.133155,6.08689 18.255822,12.878396 4.653092,7.665305 5.10584,16.956309 1.240264,25.451804 -2.378944,5.228274 -7.760355,10.589334 -13.081781,13.03231 -4.811048,2.208671 -11.204367,3.107092 -15.978088,2.245323 z"
     id="path15" />
</svg>
