<?xml version="1.0" encoding="UTF-8" standalone="no"?>
<svg
   id="Layer_1"
   data-name="Layer 1"
   width="286"
   height="94"
   viewBox="0 0 286 94"
   version="1.1"
   sodipodi:docname="sticks.svg"
   inkscape:version="1.3.1 (91b66b0783, 2023-11-16)"
   xmlns:inkscape="http://www.inkscape.org/namespaces/inkscape"
   xmlns:sodipodi="http://sodipodi.sourceforge.net/DTD/sodipodi-0.dtd"
   xmlns="http://www.w3.org/2000/svg"
   xmlns:svg="http://www.w3.org/2000/svg">
  <sodipodi:namedview
     id="namedview11"
     pagecolor="#ffffff"
     bordercolor="#000000"
     borderopacity="0.25"
     inkscape:showpageshadow="2"
     inkscape:pageopacity="0.0"
     inkscape:pagecheckerboard="0"
     inkscape:deskcolor="#d1d1d1"
     inkscape:zoom="8"
     inkscape:cx="60.5625"
     inkscape:cy="44.9375"
     inkscape:window-width="1920"
     inkscape:window-height="1009"
     inkscape:window-x="1917"
     inkscape:window-y="-8"
     inkscape:window-maximized="1"
     inkscape:current-layer="Layer_1" />
  <defs
     id="defs1">
    <style
       id="style1">
      .cls-1 {
        fill: #0f0f0f;
      }

      .cls-2 {
        fill: #121212;
      }

      .cls-3 {
        fill: #141414;
      }

      .cls-4 {
        fill: #f0f0f0;
      }

      .cls-5 {
        fill: #ededed;
      }

      .cls-6 {
        fill: #ebebeb;
      }
    </style>
  </defs>
  <g
     id="g3">
    <g
       id="g2">
      <path
         class="cls-1"
         d="M47,92.5A45.5,45.5,0,1,1,92.5,47,45.54,45.54,0,0,1,47,92.5Z"
         id="path1" />
      <path
         class="cls-2"
         d="M47,3A44,44,0,1,1,3,47,44,44,0,0,1,47,3m0-3A47,47,0,1,0,94,47,46.95,46.95,0,0,0,47,0Z"
         id="path2" />
    </g>
    <circle
       class="cls-3"
       cx="47"
       cy="47"
       r="27.3"
       id="circle2" />
  </g>
  <g
     id="g7">
    <g
       id="g4">
      <path
         class="cls-4"
         d="M239,92.5A45.5,45.5,0,1,1,284.5,47,45.54,45.54,0,0,1,239,92.5Z"
         id="path3" />
      <path
         class="cls-5"
         d="M239,3a44,44,0,1,1-44,44A44,44,0,0,1,239,3m0-3a47,47,0,1,0,47,47A46.95,46.95,0,0,0,239,0Z"
         id="path4" />
    </g>
    <circle
       class="cls-6"
       cx="239"
       cy="47"
       r="27.3"
       id="circle4" />
    <g
       id="g6">
      <path
         d="M218.7,33.5h12.6c5.8,0,8.7,2.7,8.7,7.1,0,5.1-3.5,6.4-4.4,6.7v.1c1.6.2,3.9,1.4,3.9,5.6,0,3.1.4,5.9,1.4,7h-5a7.36,7.36,0,0,1-.7-3.9c0-4.8-1-7-5.3-7h-6.8V60h-4.6V33.5Zm4.6,12.1h7.6q4.5,0,4.5-4.2c0-3.4-2.2-4-4.6-4h-7.5Z"
         id="path5" />
      <path
         d="M250.3,44.8c2.8.1,5.7-.9,5.7-4.1a3.71,3.71,0,0,0-4-3.7c-2.9,0-4.4,2.6-4.3,5.3h-4.2c.2-5,3.4-8.8,8.6-8.8,4,0,8.2,2.3,8.2,6.9,0,2.6-1.1,4.7-3.7,5.5V46c3,.6,4.7,3.1,4.7,6.5,0,4.9-4.3,7.9-9.2,7.9-6,0-9-3.6-9.1-9h4.2c-.1,3.1,1.6,5.5,4.9,5.5,2.8,0,5-1.7,5-4.6,0-4-3.4-4.5-6.8-4.4V44.8Z"
         id="path6" />
    </g>
  </g>
  <g
     id="g11">
    <g
       id="g8">
      <path
         class="cls-4"
         d="M143,92.5A45.5,45.5,0,1,1,188.5,47,45.54,45.54,0,0,1,143,92.5Z"
         id="path7" />
      <path
         class="cls-5"
         d="M143,3A44,44,0,1,1,99,47,44,44,0,0,1,143,3m0-3a47,47,0,1,0,47,47A46.95,46.95,0,0,0,143,0Z"
         id="path8" />
    </g>
    <circle
       class="cls-6"
       cx="143"
       cy="47"
       r="27.3"
       id="circle8" />
    <g
       id="g10">
      <path
         d="M125.1,33.5h4.6V55.9h13.4v4h-18Z"
         id="path9" />
      <path
         d="M151.9,44.8c2.8.1,5.7-.9,5.7-4.1a3.71,3.71,0,0,0-4-3.7c-2.9,0-4.4,2.6-4.3,5.3h-4.2c.2-5,3.4-8.8,8.6-8.8,4,0,8.2,2.3,8.2,6.9,0,2.6-1.1,4.7-3.7,5.5V46c3,.6,4.7,3.1,4.7,6.5,0,4.9-4.3,7.9-9.2,7.9-6,0-9-3.6-9.1-9h4.2c-.1,3.1,1.6,5.5,4.9,5.5,2.8,0,5-1.7,5-4.6,0-4-3.4-4.5-6.8-4.4V44.8Z"
         id="path10" />
    </g>
  </g>
  <path
     style="fill:#4d4d4d;fill-opacity:1;stroke-width:0.206024"
     d="M 43.471464,94.2578 C 26.89224,93.04921 11.835772,82.878405 4.5833941,67.988498 2.47076,63.651035 1.184731,59.754314 0.3036188,55.020606 -0.24856868,52.05402 -0.47100265,44.795526 -0.10635272,41.64236 0.60331529,35.505792 2.6353392,29.173673 5.6432283,23.725727 12.737858,10.875797 25.536917,2.0526937 40.281897,-0.15263406 43.367845,-0.61418279 49.23942,-0.70761516 52.2073,-0.34239895 62.968016,0.98177364 72.689953,5.6864536 80.159512,13.184353 c 7.417087,7.445224 12.102074,16.910008 13.551176,27.376573 0.480541,3.470837 0.481665,9.163506 0.0025,12.600578 -3.137432,22.50443 -21.090478,39.403817 -43.666284,41.103518 -3.015909,0.227061 -3.366856,0.226677 -6.575429,-0.0072 z m 8.592383,-3.101874 c 10.852116,-1.230294 21.711362,-7.10906 28.635673,-15.50222 1.651118,-2.001372 4.113488,-5.514497 4.810313,-6.862998 2.036642,-3.941336 2.9659,-6.209192 3.98438,-9.723896 1.222102,-4.217403 1.658737,-7.478339 1.658299,-12.384777 C 91.150811,27.555352 78.948094,10.616526 60.834708,4.5973006 58.155896,3.7071097 57.922154,3.6419918 56.081459,3.2730951 52.237649,2.5027516 50.613218,2.3685985 46.039991,2.4438238 40.388748,2.5367814 36.826129,3.1479454 32.043533,4.8449032 17.681901,9.9406864 6.6760604,22.567299 3.4952064,37.597389 2.6039825,41.808577 2.336995,48.435748 2.8931436,52.541803 3.6169178,57.885441 5.2218541,62.997108 7.6014424,67.537571 12.084673,76.091972 18.78625,82.64513 27.341112,86.840073 c 4.387028,2.151214 8.707616,3.499245 13.481918,4.206383 2.13708,0.31653 8.838706,0.381795 11.240817,0.10947 z"
     id="path13" />
  <path
     style="fill:#333333;fill-opacity:1;stroke-width:0.208657"
     d="M 40.140567,91.620656 C 34.4229,90.732457 28.288973,88.40744 23.044871,85.140662 13.370182,79.113879 6.1254058,68.950116 3.4092055,57.593615 2.5454881,53.982387 2.2640991,51.507631 2.262784,47.511078 2.2608411,41.606467 2.8274076,37.721832 4.3764391,33.018905 8.457428,20.628845 18.162668,10.153836 30.018176,5.3433962 c 3.335269,-1.3533027 5.705129,-2.051307 8.941963,-2.6337105 2.121603,-0.3817388 3.319876,-0.4506264 8.005076,-0.4602031 6.518813,-0.013325 8.438381,0.2703236 13.699866,2.0243829 11.749337,3.9169605 21.110192,12.0938325 26.408461,23.0682535 5.003558,10.363974 5.86178,22.643896 2.343079,33.525978 -0.985281,3.047114 -2.821004,7.173869 -4.142135,9.31163 -7.138007,11.550196 -18.427778,19.250797 -31.332016,21.371145 -3.111983,0.511341 -10.712068,0.54977 -13.801903,0.06979 z M 51.747464,74.670106 C 62.474731,72.799233 71.264677,64.540674 73.886796,53.869185 75.502876,47.292064 74.812097,40.62782 71.906891,34.768173 66.718509,24.303489 56.038078,18.165973 44.678049,19.121103 c -3.891169,0.327163 -6.648586,1.087952 -10.095076,2.785302 -5.578286,2.747229 -10.063455,7.304654 -12.764656,12.970306 -1.944293,4.078065 -2.742724,7.568714 -2.760091,12.06679 -0.02443,6.330098 1.800124,11.877342 5.596735,17.015812 4.562231,6.174694 12.076391,10.391058 19.815165,11.118735 1.61895,0.152231 5.22419,-0.04988 7.277338,-0.407942 z"
     id="path14" />
  <path
     style="fill:#4d4d4d;fill-opacity:1;stroke-width:0.210884"
     d="M 42.263562,74.983639 C 33.43319,73.36815 25.463276,67.228746 21.625591,59.085745 19.851604,55.321606 19.041036,51.579397 19.027539,47.091139 c -0.01091,-3.629717 0.284434,-5.686416 1.242679,-8.653531 3.173756,-9.827244 11.094494,-17.031927 21.094976,-19.187936 2.840826,-0.612454 8.207006,-0.659843 10.726454,-0.09473 8.243044,1.848936 14.523738,6.339055 18.760339,13.411919 4.781684,7.982863 5.246944,17.658773 1.27454,26.506218 -2.444688,5.44487 -7.97482,11.028028 -13.443308,13.57221 -4.944006,2.300173 -11.514011,3.235812 -16.419657,2.338343 z"
     id="path15" />
</svg>
