<?xml version="1.0" encoding="UTF-8" standalone="no"?>
<!-- Created with Inkscape (http://www.inkscape.org/) -->

<svg
   version="1.1"
   id="svg1"
   width="952"
   height="624"
   viewBox="0 0 952 624"
   sodipodi:docname="8bitdo-base.png"
   xmlns:inkscape="http://www.inkscape.org/namespaces/inkscape"
   xmlns:sodipodi="http://sodipodi.sourceforge.net/DTD/sodipodi-0.dtd"
   xmlns="http://www.w3.org/2000/svg"
   xmlns:svg="http://www.w3.org/2000/svg">
  <defs
     id="defs1" />
  <sodipodi:namedview
     id="namedview1"
     pagecolor="#ffffff"
     bordercolor="#000000"
     borderopacity="0.25"
     inkscape:showpageshadow="2"
     inkscape:pageopacity="0.0"
     inkscape:pagecheckerboard="0"
     inkscape:deskcolor="#d1d1d1"
     inkscape:export-bgcolor="#37373700"
     inkscape:zoom="1.409757"
     inkscape:cx="701.89401"
     inkscape:cy="158.53796"
     inkscape:window-width="1920"
     inkscape:window-height="1009"
     inkscape:window-x="638"
     inkscape:window-y="-8"
     inkscape:window-maximized="1"
     inkscape:current-layer="g1"
     showguides="false" />
  <g
     inkscape:groupmode="layer"
     inkscape:label="Image"
     id="g1">
    <path
       style="display:inline;fill:#d40000;fill-opacity:1"
       d="m 946.24759,373.57207 c 0.33989,5.33485 1.01968,16.00453 1.46302,24.11769 0.44334,8.11316 0.65023,13.66956 0.88668,19.04879 0.23645,5.37923 0.50245,10.58097 0.70934,15.78286 0.20689,5.20189 0.35467,10.40363 0.44334,15.81242 0.0887,5.40879 0.11824,11.0243 0.19214,16.97988 0.0739,5.95559 0.19212,12.25087 0.22167,17.82221 0.0296,5.57134 -0.0296,10.41841 -0.63546,16.07843 -0.60591,5.66003 -1.75857,12.13265 -2.92604,18.87147 -1.16747,6.73882 -2.34968,13.74343 -3.85705,19.65467 -1.50737,5.91123 -3.33981,10.72875 -5.29052,15.20651 -1.95071,4.47776 -4.01958,8.61551 -6.69443,13.27062 -2.67484,4.65511 -5.95548,9.82729 -9.17711,14.26072 -3.22163,4.43342 -6.38405,8.12784 -10.16725,11.61547 -3.7832,3.48763 -8.18694,6.76827 -13.4184,10.01945 -5.23146,3.25119 -11.2903,6.47271 -17.30811,9.16952 -6.0178,2.69681 -11.9942,4.86875 -17.97111,6.26823 -5.97691,1.39949 -11.95395,2.02645 -17.52364,1.9951 -5.56969,-0.0314 -10.73168,-0.72102 -15.49674,-2.12128 -4.76506,-1.40027 -9.13291,-3.51105 -12.82165,-5.95628 -3.68873,-2.44524 -6.69816,-5.22478 -8.18137,-6.56881 -1.48321,-1.34404 -1.44013,-1.25249 -2.20296,-2.09892 -0.76284,-0.84642 -2.33152,-2.63076 -4.67289,-5.17402 -2.34138,-2.54326 -5.4553,-5.84526 -8.46481,-9.88931 -3.00952,-4.04404 -5.91445,-8.82986 -8.38057,-13.22918 -2.46613,-4.39932 -4.49331,-8.41188 -7.28339,-14.44138 -2.79007,-6.0295 -6.34287,-14.07552 -9.18518,-21.81875 -2.84231,-7.74322 -4.97398,-15.18319 -7.23112,-23.35486 -2.25713,-8.17167 -4.63959,-17.07455 -6.75043,-24.05493 -2.11084,-6.98038 -3.94993,-12.03789 -6.01897,-17.17914 -2.06904,-5.14125 -4.36791,-10.36595 -6.89674,-15.19371 -2.52883,-4.82775 -5.28747,-9.25829 -7.7745,-13.58446 -2.48703,-4.32618 -4.7023,-8.54774 -7.31473,-12.14243 -2.61242,-3.59469 -5.62185,-6.56231 -9.53004,-10.80491 -3.9082,-4.24259 -8.71492,-9.75986 -12.6022,-13.93973 -3.88728,-4.17987 -6.8549,-7.0221 -10.32421,-9.78082 -3.4693,-2.75872 -7.44007,-5.43376 -11.03476,-7.79539 -3.5947,-2.36163 -6.81311,-4.40971 -9.98982,-6.49965 -3.17671,-2.08994 -6.31152,-4.22162 -8.73585,-5.51737 -2.42432,-1.29575 -4.13802,-1.75553 -5.49648,-1.88092 -1.35845,-0.1254 -2.36159,0.0836 -3.50583,0.10449 -1.14425,0.0209 -2.42953,-0.1463 -4.23211,0.34485 -1.80257,0.49114 -4.12234,1.64057 -7.55985,2.70379 -3.4375,1.06321 -7.99252,2.04014 -13.46218,3.03108 -5.46966,0.99093 -11.85361,1.99581 -18.23775,2.32092 -6.38414,0.32511 -12.76809,-0.0296 -19.68425,-1.33003 -6.91616,-1.30048 -14.36411,-3.54669 -20.21623,-6.1772 -5.85211,-2.63051 -10.10807,-5.64515 -14.00949,-8.83722 -3.90142,-3.19208 -7.44806,-6.56139 -10.81747,-10.01946 -3.3694,-3.45808 -6.56138,-7.00472 -8.86676,-9.31009 -2.30537,-2.30538 -3.72402,-3.36936 -4.87671,-3.8127 -1.15269,-0.44334 -2.03935,-0.26601 -14.88165,-0.16256 -12.8423,0.10345 -37.63922,0.13301 -56.24479,0.11824 -18.60558,-0.0148 -31.01882,-0.0739 -37.35857,-0.0296 -6.33974,0.0443 -6.60574,0.19212 -8.11312,2.1724 -1.50738,1.98029 -4.25603,5.79292 -7.4481,9.384 -3.19208,3.59108 -6.82738,6.96039 -10.52191,9.93078 -3.69453,2.9704 -7.44806,5.54171 -12.31006,8.1131 -4.86201,2.57139 -10.83219,5.14271 -16.03408,7.10819 -5.20188,1.96548 -9.63518,3.32503 -13.18192,4.12304 -3.54674,0.79801 -6.20672,1.03445 -9.91603,1.35957 -3.70932,0.32512 -8.46773,0.7389 -13.47751,0.50244 -5.00978,-0.23645 -10.27063,-1.12311 -14.11292,-2.05413 -3.84229,-0.93102 -6.26583,-1.90635 -9.35446,-3.26594 -3.08863,-1.35959 -6.84216,-3.10336 -9.54654,-4.37427 -2.70439,-1.27092 -4.35949,-2.06891 -5.73385,-2.23146 -1.37436,-0.16255 -2.46791,0.31033 -6.11813,2.3645 -3.65021,2.05418 -9.85683,5.68948 -15.64985,10.00469 -5.79301,4.31522 -11.17208,9.31007 -17.83702,15.9898 -6.66494,6.67972 -14.61533,15.04388 -19.80241,20.95509 -5.18709,5.91122 -7.61063,9.3692 -11.23127,14.89623 -3.62065,5.52703 -8.43817,13.12275 -13.66963,25.12262 -5.23145,11.99987 -10.87652,28.40308 -14.60058,41.127 -3.72407,12.72391 -5.52694,21.76784 -8.15745,30.2948 -2.63051,8.52696 -6.08849,16.53646 -9.26578,22.9797 -3.17729,6.44324 -6.07371,11.31987 -8.61555,15.60551 -2.54183,4.28565 -4.72892,7.98006 -7.64021,11.82237 -2.9113,3.84231 -6.5466,7.83228 -11.14261,11.97015 -4.596,4.13788 -10.1524,8.4234 -15.97497,11.83714 -5.82258,3.41373 -11.91098,5.95549 -16.41829,7.62541 -4.50731,1.66992 -7.43328,2.46791 -11.6155,2.73391 -4.18222,0.266 -9.6204,0 -14.39373,-0.6059 -4.77332,-0.60591 -8.88151,-1.55168 -13.77307,-3.05905 -4.89156,-1.50733 -10.56618,-3.5762 -15.01438,-5.64514 -4.4482,-2.06893 -7.66973,-4.13781 -11.5416,-6.85698 -3.87187,-2.71918 -8.39384,-6.08849 -13.27062,-10.96528 -4.87678,-4.87679 -10.10807,-11.26074 -15.18211,-20.04823 -5.07404,-8.78749 -9.99053,-19.97794 -13.4938,-32.47015 -3.5032698,-12.49221 -5.5931498,-26.2854 -6.8471098,-40.6642 -1.25395,-14.37879 -1.67193,-29.34231 -1.67192,-44.38988 0,-15.04757 0.41798,-30.17828 1.33755,-45.72744 0.91958,-15.54916 2.3407,-31.51582 3.88726,-48.82054 1.54655,-17.30472 3.2184598,-35.94643 5.0993998,-54.2125 1.88095,-18.26607 3.97083,-36.15542 6.68776,-55.17388 2.71693,-19.01847 6.06073,-39.16489 9.86443,-58.01614 3.80369,-18.85125 8.06704,-36.40622 12.28872,-50.32518 4.22168,-13.91897 8.40143,-24.20116 13.79349,-34.02388 5.39206,-9.82271 11.99607,-19.185363 18.97648,-27.754113 6.9804,-8.56874 14.33677,-16.34309 21.02457,-22.48749 6.6878,-6.14441 12.70665,-10.65855 17.6807,-14.00244 4.97405,-3.34389 8.90301,-5.51736 10.99293,-6.88627 2.08993,-1.3689 2.34071,-1.93317 2.45565,-4.07537 0.11495,-2.14221 0.094,-5.86219 0.2926,-7.91031 0.19854,-2.04813 0.61651,-2.4243 2.53927,-3.46928 1.92276,-1.04498 5.35016,-2.75868 10.18318,-4.88515 4.83301,-2.12647 11.07132,-4.66557 18.21022,-6.96963 7.1389,-2.3040504 15.17795,-4.3729304 22.03815,-5.8725004 6.86021,-1.49957 12.54118,-2.42977 17.65978,-3.18747 5.1186,-0.75771 9.67453,-1.34287 16.50866,-1.65636 6.83413,-0.31349 15.94599,-0.35529 30.45023,-0.39709 14.50424,-0.0418 34.39987,-0.0836 46.35425,-0.12538998 11.95438,-0.0418 15.96694,-0.0836 18.37036,0.0209 2.40341,0.10449998 3.19757,0.35527998 3.94995,0.73146998 0.75237,0.37619 1.46293,0.87777 1.77642,2.59153 0.31348,1.71376 0.22989,4.63959 0.79418,6.0189304 0.56429,1.37935 1.77642,1.21216 18.2453,1.10766 16.46888,-0.10449 48.19322,-0.14629 101.29882,-0.0836 53.10559,0.0627 127.58882,0.22989 165.14467,0.22989 37.55586,0 38.18282,-0.16719 38.4963,-1.8600604 0.31349,-1.69286 0.31349,-4.91128 0.58519,-6.64591 0.27169,-1.73464 0.81506,-1.98542 4.40979,-2.21531998 3.59473,-0.22989 10.24054,-0.43888 26.14507,-0.52247 15.90454,-0.0836 41.06667,-0.0418 55.75884,0.27169 14.69217,0.3135 18.91373,0.89865998 22.57112,1.27484998 3.65739,0.37619 6.7504,0.54338 12.26787,1.54656 5.51747,1.00318 13.459,2.84227 19.8124,4.49332 6.3534,1.65105 11.11833,3.1139704 16.07149,4.9113204 4.95316,1.79735 10.09425,3.92902 14.27412,5.78906 4.17987,1.86005 7.39829,3.44836 10.4078,4.95311 3.00951,1.50476 5.80995,2.92588 7.1475,4.63963 1.33754,1.71375 1.21215,3.72004 1.14945,5.55918 -0.0627,1.83915 -0.0627,3.51105 0.209,4.91131 0.27169,1.40025 0.81506,2.52879 3.4484,4.36794 2.63335,1.83916 7.35647,4.3888 12.87392,8.4433 5.51745,4.0545 11.82888,9.61358 18.55849,16.385 6.72962,6.77142 13.877,14.75475 20.16482,23.51895 6.28782,8.764203 11.71572,18.308733 16.79425,29.169743 5.07853,10.861 9.80738,23.03779 12.99944,33.79624 3.19205,10.75845 4.84715,20.09793 6.91609,32.27512 2.06894,12.17719 4.55158,27.1913 7.21164,43.03344 2.66007,15.84214 5.49738,32.51135 8.15744,51.72291 2.66006,19.21157 5.1427,40.96429 6.67962,55.87533 1.53691,14.91105 2.12802,22.97965 2.42358,27.01404 0.29556,4.03438 0.29557,4.03438 0.63546,9.36922 z"
       id="path212" />
  </g>
</svg>
